Coordinates
version=1
nRows=37
nColumns=38
inDegrees=no

Units are S.I. units (second, meters, Newtons, ...)
If the header above contains a line with 'inDegrees', this indicates whether rotational values are in degrees (yes) or radians (no).

endheader
time	pelvis_tilt	pelvis_list	pelvis_rotation	pelvis_tx	pelvis_ty	pelvis_tz	hip_flexion_r	hip_adduction_r	hip_rotation_r	knee_angle_r	ankle_angle_r	subtalar_angle_r	mtp_angle_r	hip_flexion_l	hip_adduction_l	hip_rotation_l	knee_angle_l	ankle_angle_l	subtalar_angle_l	mtp_angle_l	lumbar_extension	lumbar_bending	lumbar_rotation	arm_flex_r	arm_add_r	arm_rot_r	elbow_flex_r	pro_sup_r	wrist_flex_r	wrist_dev_r	arm_flex_l	arm_add_l	arm_rot_l	elbow_flex_l	pro_sup_l	wrist_flex_l	wrist_dev_l
0.51	2.89525	1.29255	-1.25829	0.89186	-0.0229874	0.9208	0.106612	0.0125015	-0.37481	0.360546	0.0504991	0	0	-0.32696	-0.223662	-0.208549	0.861711	-0.207429	0	0	-0.195133	0.0797937	0.0294935	0.285948	-0.506163	-0.02767	1.7056	0.435331	0	0	0.320883	-0.329962	-0.345242	1.71807	1.5708	0	0
0.52	2.86742	1.29004	-1.23218	0.894364	-0.0103721	0.921356	0.097478	0.0232394	-0.378743	0.371442	0.0585229	0	0	-0.275838	-0.244749	-0.192042	0.944255	-0.289464	0	0	-0.19658	0.0880081	0.0350405	0.284028	-0.511464	-0.027529	1.70766	0.435902	0	0	0.319855	-0.332951	-0.340225	1.72111	1.5708	0	0
0.53	2.84897	1.28668	-1.21484	0.896776	0.00209052	0.922178	0.0843071	0.0341115	-0.378244	0.377604	0.0674616	0	0	-0.226504	-0.261003	-0.17328	1.01987	-0.357358	0	0	-0.200047	0.0935737	0.0404898	0.282871	-0.515478	-0.0280777	1.70904	0.435709	0	0	0.320784	-0.336796	-0.334389	1.72362	1.5708	0	0
0.54	2.84217	1.28322	-1.20813	0.898967	0.0143853	0.92337	0.0683168	0.0432543	-0.374474	0.380472	0.0759231	0	0	-0.180319	-0.269718	-0.152036	1.0862	-0.405547	0	0	-0.205109	0.0957239	0.0453783	0.281655	-0.517969	-0.0301481	1.71037	0.434538	0	0	0.323235	-0.341029	-0.327282	1.72543	1.5708	0	0
0.55	2.84756	1.27953	-1.21388	0.900794	0.02666	0.925049	0.049551	0.0492335	-0.368052	0.380593	0.0819824	0	0	-0.148997	-0.268278	-0.134063	1.13212	-0.410371	0	0	-0.211646	0.0944937	0.0510479	0.278931	-0.519865	-0.034774	1.71255	0.431261	0	0	0.326604	-0.344093	-0.319266	1.72617	1.5708	0	0
0.56	2.86251	1.27937	-1.22719	0.902563	0.0381666	0.926934	0.03411	0.0513967	-0.359956	0.379289	0.0834782	0	0	-0.0914017	-0.263524	-0.105116	1.20361	-0.389552	0	0	-0.216969	0.0887081	0.0539179	0.277399	-0.517509	-0.0409192	1.71225	0.429886	0	0	0.33098	-0.347267	-0.312119	1.7258	1.5708	0	0
0.57	2.88109	1.27764	-1.24546	0.904211	0.0495724	0.928943	0.0163206	0.052494	-0.350544	0.37653	0.0840586	0	0	-0.0475954	-0.254523	-0.0824523	1.25895	-0.334762	0	0	-0.222783	0.0793132	0.0641078	0.267428	-0.516129	-0.0584406	1.71244	0.428496	0	0	0.334301	-0.370828	-0.101829	1.79055	0.530855	0	0
0.58	2.90133	1.27844	-1.26646	0.905678	0.0610302	0.931067	0.000522391	0.0515199	-0.339879	0.37302	0.0845646	0	0	-0.00382649	-0.241415	-0.0630281	1.30608	-0.276538	0	0	-0.227242	0.0720466	0.0675539	0.266654	-0.513029	-0.0638928	1.71199	0.429184	0	0	0.336062	-0.371086	-0.0989916	1.79077	0.528821	0	0
0.59	2.92417	1.27942	-1.29088	0.907005	0.0723912	0.933291	-0.015766	0.0491001	-0.32912	0.368762	0.0857007	0	0	0.0370485	-0.226363	-0.0482709	1.34343	-0.228539	0	0	-0.231532	0.0643187	0.0712256	0.266198	-0.510325	-0.0683586	1.71181	0.429883	0	0	0.336913	-0.370101	-0.0975163	1.79062	0.52861	0	0
0.6	2.94473	1.28149	-1.31419	0.908268	0.0837563	0.935439	-0.0311341	0.0463038	-0.319801	0.36376	0.0880449	0	0	0.0766449	-0.211841	-0.0383192	1.37178	-0.192143	0	0	-0.233869	0.0571928	0.0757515	0.265374	-0.508539	-0.0715689	1.71201	0.42863	0	0	0.335799	-0.368288	-0.0958798	1.79065	0.524484	0	0
0.61	2.96526	1.28335	-1.33782	0.909438	0.0950864	0.937618	-0.0478302	0.0429961	-0.312938	0.356723	0.0910973	0	0	0.113735	-0.197599	-0.0319917	1.3919	-0.164713	0	0	-0.236105	0.0501614	0.0811072	0.264195	-0.507573	-0.0754052	1.71248	0.428232	0	0	0.334227	-0.366168	-0.0933998	1.79083	0.516638	0	0
0.62	2.98687	1.2848	-1.36278	0.910578	0.106358	0.939829	-0.0665791	0.0394329	-0.308404	0.346687	0.0951542	0	0	0.147893	-0.183721	-0.028931	1.40477	-0.141148	0	0	-0.238697	0.042773	0.0872241	0.262811	-0.507252	-0.0794476	1.71387	0.426612	0	0	0.335247	-0.362752	-0.0938379	1.78816	0.520324	0	0
0.63	3.0065	1.29005	-1.38674	0.911867	0.117701	0.941895	-0.0826048	0.0362663	-0.303459	0.333191	0.0972664	0	0	0.183592	-0.170518	-0.0289996	1.41011	-0.119649	0	0	-0.236585	0.0320927	0.0987318	0.282802	-0.473197	-0.276799	1.59569	1.48045	0	0	0.339761	-0.35832	-0.0853146	1.78496	0.521856	0	0
0.64	3.02446	1.28952	-1.41059	0.913058	0.128605	0.943957	-0.105205	0.0343584	-0.297902	0.317913	0.0989834	0	0	0.210897	-0.160941	-0.0336703	1.40936	-0.0987642	0	0	-0.241192	0.0287646	0.102422	0.258445	-0.510994	-0.0846629	1.71784	0.430107	0	0	0.334418	-0.356968	-0.0921668	1.78597	0.515939	0	0
0.65	3.04711	1.29491	-1.43997	0.914506	0.139926	0.945993	-0.122732	0.0301577	-0.292608	0.300862	0.0998616	0	0	0.240733	-0.149986	-0.0412602	1.40003	-0.0818166	0	0	-0.238584	0.0170499	0.11547	0.280742	-0.477689	-0.280502	1.59862	1.48963	0	0	0.337756	-0.353443	-0.0839164	1.78345	0.5125	0	0
0.66	3.07049	1.29345	-1.47023	0.915779	0.150756	0.948055	-0.14732	0.0261223	-0.288333	0.283291	0.10208	0	0	0.261767	-0.141993	-0.0525013	1.38621	-0.0658512	0	0	-0.244282	0.011854	0.119145	0.257537	-0.516432	-0.0844016	1.71996	0.431965	0	0	0.333409	-0.352586	-0.0930691	1.78304	0.514909	0	0
0.67	3.0944	1.29599	-1.50219	0.917254	0.161861	0.949855	-0.167558	0.0212583	-0.283191	0.265396	0.104072	0	0	0.284377	-0.134922	-0.0665104	1.36675	-0.0498986	0	0	-0.244975	0.00267524	0.128035	0.258169	-0.519276	-0.0825441	1.72094	0.427924	0	0	0.332889	-0.350915	-0.094451	1.78174	0.517154	0	0
0.68	3.11666	1.29923	-1.53295	0.918769	0.172869	0.951379	-0.186425	0.0167366	-0.277134	0.247485	0.106392	0	0	0.30571	-0.129723	-0.0821989	1.34231	-0.0326676	0	0	-0.244978	-0.00635439	0.136867	0.259678	-0.521814	-0.0800326	1.7214	0.426566	0	0	0.331482	-0.349875	-0.0951377	1.78284	0.513654	0	0
0.69	3.13678	1.30243	-1.56139	0.9203	0.183912	0.952666	-0.205502	0.0130172	-0.270719	0.228592	0.109362	0	0	0.3244	-0.126897	-0.100036	1.31264	-0.0155662	0	0	-0.244911	-0.0148928	0.145313	0.261234	-0.524088	-0.0774604	1.72265	0.423667	0	0	0.329417	-0.349676	-0.0949318	1.78642	0.501409	0	0
0.7	-3.12777	1.30509	-1.58812	0.921858	0.194983	0.953773	-0.225445	0.00988275	-0.263189	0.20919	0.110519	0	0	0.339556	-0.125809	-0.119778	1.27665	-0.000405654	0	0	-0.245262	-0.0231587	0.153387	0.263154	-0.525646	-0.0752918	1.72379	0.42173	0	0	0.328413	-0.349878	-0.0952033	1.78881	0.492809	0	0
0.71	-3.11189	1.30826	-1.61251	0.923457	0.206102	0.954548	-0.244418	0.00726596	-0.25422	0.19067	0.111057	0	0	0.352674	-0.127351	-0.142127	1.23669	0.0120371	0	0	-0.244757	-0.0308084	0.161869	0.26511	-0.526677	-0.0740315	1.72482	0.42142	0	0	0.328111	-0.350171	-0.095873	1.78994	0.490115	0	0
0.72	-3.09632	1.31148	-1.63642	0.924963	0.217313	0.955043	-0.262929	0.00427671	-0.245493	0.17327	0.112688	0	0	0.363022	-0.13057	-0.167834	1.19292	0.0220456	0	0	-0.243823	-0.0382046	0.170109	0.266981	-0.52731	-0.0731107	1.72607	0.420524	0	0	0.328266	-0.350152	-0.0969939	1.79001	0.493097	0	0
0.73	-3.08244	1.31511	-1.65806	0.92637	0.228495	0.955188	-0.280129	0.00153808	-0.237641	0.157121	0.116369	0	0	0.371365	-0.134094	-0.194166	1.14506	0.0302529	0	0	-0.242524	-0.0449615	0.177608	0.26926	-0.527658	-0.0721712	1.72735	0.41969	0	0	0.328946	-0.349701	-0.0991284	1.78985	0.499727	0	0
0.74	-3.06954	1.31836	-1.67795	0.927681	0.239686	0.955066	-0.297221	-0.000978682	-0.230311	0.141652	0.121142	0	0	0.376482	-0.136338	-0.219586	1.09247	0.0369767	0	0	-0.241628	-0.0513832	0.184156	0.272058	-0.527669	-0.0713791	1.72828	0.42045	0	0	0.329145	-0.350284	-0.0992787	1.79248	0.492986	0	0
0.75	-3.05738	1.32087	-1.69585	0.928841	0.250858	0.954644	-0.314427	-0.0032735	-0.223629	0.127979	0.125719	0	0	0.377982	-0.137256	-0.245102	1.03484	0.0419225	0	0	-0.241531	-0.0574121	0.189314	0.275614	-0.527554	-0.0707244	1.72935	0.421607	0	0	0.330351	-0.351122	-0.0995845	1.79458	0.485561	0	0
0.76	-3.0469	1.32375	-1.71137	0.929795	0.262139	0.953799	-0.330569	-0.00529988	-0.216312	0.116239	0.129276	0	0	0.377314	-0.137888	-0.272947	0.973015	0.0462241	0	0	-0.240676	-0.0625103	0.193772	0.279322	-0.527583	-0.0699116	1.73073	0.419404	0	0	0.331958	-0.351331	-0.100686	1.7957	0.481945	0	0
0.77	-3.03823	1.32813	-1.72451	0.930505	0.273526	0.952471	-0.344084	-0.00674886	-0.209109	0.106027	0.133982	0	0	0.375915	-0.137599	-0.3016	0.906122	0.049185	0	0	-0.237916	-0.066405	0.197715	0.283047	-0.527651	-0.0692649	1.73183	0.417133	0	0	0.333414	-0.35097	-0.102258	1.79642	0.479802	0	0
0.78	-3.03041	1.33378	-1.73569	0.93096	0.284934	0.950679	-0.355164	-0.00757509	-0.202082	0.0979726	0.13817	0	0	0.373864	-0.13537	-0.329129	0.835022	0.0521057	0	0	-0.233668	-0.0693443	0.200516	0.286008	-0.528225	-0.0677856	1.73282	0.415397	0	0	0.334762	-0.350308	-0.104087	1.79677	0.479	0	0
0.79	-3.01905	1.34245	-1.74795	0.931145	0.296602	0.948461	-0.362313	-0.00798755	-0.195983	0.0924791	0.143663	0	0	0.373253	-0.129945	-0.353961	0.759845	0.0542598	0	0	-0.224946	-0.0745604	0.204507	0.308605	-0.500107	-0.213603	1.6195	1.23633	0	0	0.33961	-0.34887	-0.0993299	1.79545	0.480086	0	0
0.8	-3.01669	1.34616	-1.75013	0.930902	0.308213	0.946016	-0.375163	-0.00745276	-0.1959	0.0870361	0.150543	0	0	0.36609	-0.12326	-0.376756	0.68287	0.05717	0	0	-0.223155	-0.0726829	0.20047	0.291987	-0.528722	-0.0665676	1.73269	0.422555	0	0	0.337234	-0.349402	-0.106269	1.79684	0.476709	0	0
0.81	-3.0147	1.35345	-1.75026	0.930346	0.320049	0.943136	-0.383345	-0.0061504	-0.197437	0.0848828	0.159471	0	0	0.362132	-0.11467	-0.396664	0.604024	0.0597042	0	0	-0.216616	-0.0718909	0.198602	0.294784	-0.529588	-0.0657553	1.73254	0.419833	0	0	0.33812	-0.34848	-0.106993	1.79639	0.476625	0	0
0.82	-3.01481	1.36044	-1.74707	0.929507	0.33202	0.940082	-0.391785	-0.00473049	-0.201111	0.0841034	0.170892	0	0	0.356515	-0.10385	-0.413528	0.523445	0.0620474	0	0	-0.210168	-0.0700811	0.1957	0.298388	-0.53056	-0.0636418	1.73186	0.41534	0	0	0.33876	-0.34698	-0.108046	1.79566	0.476727	0	0
0.83	-3.01764	1.36817	-1.74021	0.928414	0.344175	0.936821	-0.398841	-0.00310073	-0.207046	0.0855777	0.184602	0	0	0.350143	-0.0913213	-0.424247	0.442617	0.0671702	0	0	-0.202322	-0.0670424	0.192019	0.302528	-0.531405	-0.0605921	1.73001	0.408291	0	0	0.338676	-0.344827	-0.10948	1.79427	0.476801	0	0
0.84	-3.01827	1.38068	-1.73508	0.927187	0.356661	0.933261	-0.398794	-0.00181918	-0.214061	0.0914359	0.199502	0	0	0.347004	-0.0768545	-0.424293	0.361723	0.0738829	0	0	-0.187612	-0.0663201	0.192388	0.323089	-0.500163	-0.242932	1.60528	1.4222	0	0	0.34186	-0.340811	-0.103573	1.79001	0.481189	0	0
0.85	-3.02539	1.38584	-1.72355	0.925581	0.368911	0.929931	-0.405241	-0.00181215	-0.223736	0.100098	0.21534	0	0	0.332128	-0.0594998	-0.409993	0.278194	0.0795758	0	0	-0.182244	-0.0592854	0.183901	0.304797	-0.535497	-0.0574755	1.72155	0.423104	0	0	0.336641	-0.33936	-0.111739	1.78797	0.483213	0	0
0.86	-3.0147	1.39059	-1.7311	0.9241	0.381622	0.926911	-0.410207	-0.00622139	-0.233769	0.112595	0.2315	0	0	0.301252	-0.0308051	-0.360742	0.167089	0.0631515	0	0	-0.175002	-0.0590223	0.180534	0.306201	-0.536599	-0.0538184	1.71622	0.423224	0	0	0.335294	-0.337604	-0.112496	1.78406	0.486184	0	0
0.87	-3.01378	1.39412	-1.73025	0.922787	0.394845	0.923679	-0.416413	-0.00933655	-0.242954	0.127004	0.247665	0	0	0.279246	-0.0154691	-0.330785	0.091807	0.053213	0	0	-0.167896	-0.0572675	0.178861	0.307604	-0.537547	-0.0503951	1.71027	0.425557	0	0	0.333541	-0.336577	-0.112793	1.78107	0.489099	0	0
